<?xml version="1.0"?>
<svg xmlns="http://www.w3.org/2000/svg" xmlns:xlink="http://www.w3.org/1999/xlink" xmlns:ev="http://www.w3.org/2001/xml-events" version="1.1" baseProfile="full" viewBox="19 19 137 132">
	<g>
		<g>
			<polygon points="70,45,67,45.75,67,44.25," stroke="#000000" />
			<path fill="none" d=" M40,105 L20,105 M20,105 L20,45 M20,45 L70,45" stroke="#000000" />
		</g>
		<g>
			<polygon points="95,75,92,75.75,92,74.25," stroke="#000000" />
			<path fill="none" d=" M45,100 L45,75 M45,75 L95,75" stroke="#000000" />
		</g>
		<g>
			<polygon points="70,105,67,105.75,67,104.25," stroke="#000000" />
			<path fill="none" d=" M50,105 L70,105" stroke="#000000" />
		</g>
		<g>
			<polygon points="135,75,138,74.25,138,75.75," stroke="#000000" />
			<path fill="none" d=" M45,110 L45,150 M45,150 L155,150 M155,150 L155,75 M155,75 L135,75" stroke="#000000" />
		</g>
		<g>
			<polygon points="100,70,99.25,67,100.75,67," stroke="#000000" />
			<path fill="none" d=" M80,45 L100,45 M100,45 L100,67" stroke="#000000" />
		</g>
		<g>
			<polygon points="75,100,74.25,97,75.75,97," stroke="#000000" />
			<path fill="none" d=" M75,50 L75,97" stroke="#000000" />
		</g>
		<g>
			<polygon points="130,70,129.25,67,130.75,67," stroke="#000000" />
			<path fill="none" d=" M75,40 L75,20 M75,20 L130,20 M130,20 L130,67" stroke="#000000" />
		</g>
		<g>
			<polygon points="80,105,83,104.25,83,105.75," stroke="#000000" />
			<path fill="none" d=" M100,80 L100,105 M100,105 L80,105" stroke="#000000" />
		</g>
		<g>
			<polygon points="125,75,122,75.75,122,74.25," stroke="#000000" />
			<path fill="none" d=" M105,75 L125,75" stroke="#000000" />
		</g>
		<g>
			<polygon points="130,80,129.25,83,130.75,83," stroke="#000000" />
			<path fill="none" d=" M75,110 L75,130 M75,130 L130,130 M130,130 L130,83" stroke="#000000" />
		</g>
	</g>
	<g>
		<rect x="40" y="100" width="10" height="10" />
	</g>
	<g>
		<rect x="70" y="40" width="10" height="10" />
	</g>
	<g>
		<rect x="95" y="70" width="10" height="10" />
	</g>
	<g>
		<rect x="70" y="100" width="10" height="10" />
	</g>
	<g>
		<rect x="125" y="70" width="10" height="10" />
	</g>
</svg>
