<?xml version="1.0"?>
<svg xmlns="http://www.w3.org/2000/svg" xmlns:xlink="http://www.w3.org/1999/xlink" xmlns:ev="http://www.w3.org/2001/xml-events" version="1.1" baseProfile="full" viewBox="19 19 458.316 343.579">
	<g>
		<g>
			<polygon points="152.105,279.474,155.105,278.724,155.105,280.224," stroke="#000000" />
			<path fill="none" d=" M224.211,215.263 L192.105,215.263 M192.105,215.263 L192.105,279.474 M192.105,279.474 L152.105,279.474" stroke="#000000" />
		</g>
		<g>
			<polygon points="254.211,209.474,251.211,210.224,251.211,208.724," stroke="#000000" />
			<path fill="none" d=" M234.211,209.474 L254.211,209.474" stroke="#000000" />
		</g>
		<g>
			<polygon points="232.105,331.579,231.355,328.579,232.855,328.579," stroke="#000000" />
			<path fill="none" d=" M232.105,217.368 L232.105,328.579" stroke="#000000" />
		</g>
		<g>
			<polygon points="25.2632,283.158,24.5132,286.158,26.0132,286.158," stroke="#000000" />
			<path fill="none" d=" M25.2632,303.158 L25.2632,286.158" stroke="#000000" />
		</g>
		<g>
			<polygon points="132.632,40,131.882,37,133.382,37," stroke="#000000" />
			<path fill="none" d=" M25.2632,273.158 L25.2632,20 M25.2632,20 L132.632,20 M132.632,20 L132.632,37" stroke="#000000" />
		</g>
		<g>
			<polygon points="70,278.421,67,279.171,67,277.671," stroke="#000000" />
			<path fill="none" d=" M30,278.421 L70,278.421" stroke="#000000" />
		</g>
		<g>
			<polygon points="258.947,281.579,258.197,278.579,259.697,278.579," stroke="#000000" />
			<path fill="none" d=" M258.947,241.579 L258.947,278.579" stroke="#000000" />
		</g>
		<g>
			<polygon points="258.947,211.579,258.197,214.579,259.697,214.579," stroke="#000000" />
			<path fill="none" d=" M258.947,231.579 L258.947,214.579" stroke="#000000" />
		</g>
		<g>
			<polygon points="152.105,276.316,155.105,275.566,155.105,277.066," stroke="#000000" />
			<path fill="none" d=" M276.316,179.474 L172.105,179.474 M172.105,179.474 L172.105,276.316 M172.105,276.316 L152.105,276.316" stroke="#000000" />
		</g>
		<g>
			<polygon points="326.316,198.421,323.316,199.171,323.316,197.671," stroke="#000000" />
			<path fill="none" d=" M286.316,179.474 L306.316,179.474 M306.316,179.474 L306.316,198.421 M306.316,198.421 L326.316,198.421" stroke="#000000" />
		</g>
		<g>
			<polygon points="336.316,204.737,339.316,203.987,339.316,205.487," stroke="#000000" />
			<path fill="none" d=" M137.895,47.3684 L456.316,47.3684 M456.316,47.3684 L456.316,204.737 M456.316,204.737 L336.316,204.737" stroke="#000000" />
		</g>
		<g>
			<polygon points="128.947,122.632,128.197,119.632,129.697,119.632," stroke="#000000" />
			<path fill="none" d=" M128.947,50 L128.947,119.632" stroke="#000000" />
		</g>
		<g>
			<polygon points="72.1053,273.158,71.3553,270.158,72.8553,270.158," stroke="#000000" />
			<path fill="none" d=" M127.895,44.7368 L72.1053,44.7368 M72.1053,44.7368 L72.1053,270.158" stroke="#000000" />
		</g>
		<g>
			<polygon points="316.842,90,316.092,87,317.592,87," stroke="#000000" />
			<path fill="none" d=" M136.316,50 L136.316,70 M136.316,70 L316.842,70 M316.842,70 L316.842,87" stroke="#000000" />
		</g>
		<g>
			<polygon points="266.842,286.316,269.842,285.566,269.842,287.066," stroke="#000000" />
			<path fill="none" d=" M137.895,42.1053 L476.316,42.1053 M476.316,42.1053 L476.316,286.316 M476.316,286.316 L266.842,286.316" stroke="#000000" />
		</g>
		<g>
			<polygon points="127.895,234.737,127.145,237.737,128.645,237.737," stroke="#000000" />
			<path fill="none" d=" M147.105,279.737 L144.211,274.737 M144.211,274.737 L144.211,254.737 M144.211,254.737 L127.895,254.737 M127.895,254.737 L127.895,237.737" stroke="#000000" />
		</g>
		<g>
			<polygon points="147.368,325.789,146.618,322.789,148.118,322.789," stroke="#000000" />
			<path fill="none" d=" M147.368,284.737 L147.368,322.789" stroke="#000000" />
		</g>
		<g>
			<polygon points="132.105,132.632,131.355,135.632,132.855,135.632," stroke="#000000" />
			<path fill="none" d=" M147.105,279.737 L150,274.737 M150,274.737 L150,205.263 M150,205.263 L132.105,205.263 M132.105,205.263 L132.105,135.632" stroke="#000000" />
		</g>
		<g>
			<polygon points="80,280,83,279.25,83,280.75," stroke="#000000" />
			<path fill="none" d=" M142.105,280 L80,280" stroke="#000000" />
		</g>
		<g>
			<polygon points="256.842,283.684,253.842,284.434,253.842,282.934," stroke="#000000" />
			<path fill="none" d=" M152.105,283.684 L256.842,283.684" stroke="#000000" />
		</g>
		<g>
			<polygon points="127.895,132.632,127.145,135.632,128.645,135.632," stroke="#000000" />
			<path fill="none" d=" M127.895,224.737 L127.895,135.632" stroke="#000000" />
		</g>
		<g>
			<polygon points="80,274.211,83,273.461,83,274.961," stroke="#000000" />
			<path fill="none" d=" M120,232.632 L100,232.632 M100,232.632 L100,274.211 M100,274.211 L80,274.211" stroke="#000000" />
		</g>
		<g>
			<polygon points="80,282.632,83,281.882,83,283.382," stroke="#000000" />
			<path fill="none" d=" M142.105,327.895 L122.105,327.895 M122.105,327.895 L122.105,282.632 M122.105,282.632 L80,282.632" stroke="#000000" />
		</g>
		<g>
			<polygon points="230,333.684,227,334.434,227,332.934," stroke="#000000" />
			<path fill="none" d=" M152.105,333.684 L230,333.684" stroke="#000000" />
		</g>
		<g>
			<polygon points="264.737,281.579,263.987,278.579,265.487,278.579," stroke="#000000" />
			<path fill="none" d=" M328.421,206.316 L328.421,261.579 M328.421,261.579 L264.737,261.579 M264.737,261.579 L264.737,278.579" stroke="#000000" />
		</g>
		<g>
			<polygon points="264.211,203.684,267.211,202.934,267.211,204.434," stroke="#000000" />
			<path fill="none" d=" M326.316,203.684 L264.211,203.684" stroke="#000000" />
		</g>
		<g>
			<polygon points="328.421,130,327.671,133,329.171,133," stroke="#000000" />
			<path fill="none" d=" M328.421,196.316 L328.421,133" stroke="#000000" />
		</g>
		<g>
			<polygon points="376.316,182.632,373.316,183.382,373.316,181.882," stroke="#000000" />
			<path fill="none" d=" M336.316,197.368 L356.316,197.368 M356.316,197.368 L356.316,182.632 M356.316,182.632 L376.316,182.632" stroke="#000000" />
		</g>
		<g>
			<polygon points="406.316,150,403.316,150.75,403.316,149.25," stroke="#000000" />
			<path fill="none" d=" M333.684,196.316 L333.684,150 M333.684,150 L406.316,150" stroke="#000000" />
		</g>
		<g>
			<polygon points="77.8947,273.158,77.1447,270.158,78.6447,270.158," stroke="#000000" />
			<path fill="none" d=" M126.842,127.895 L77.8947,127.895 M77.8947,127.895 L77.8947,270.158" stroke="#000000" />
		</g>
		<g>
			<polygon points="314.737,94.7368,311.737,95.4868,311.737,93.9868," stroke="#000000" />
			<path fill="none" d=" M134.737,122.632 L134.737,94.7368 M134.737,94.7368 L314.737,94.7368" stroke="#000000" />
		</g>
		<g>
			<polygon points="256.316,201.579,255.566,198.579,257.066,198.579," stroke="#000000" />
			<path fill="none" d=" M135.263,132.632 L135.263,152.632 M135.263,152.632 L256.316,152.632 M256.316,152.632 L256.316,198.579" stroke="#000000" />
		</g>
		<g>
			<polygon points="320.526,124.737,317.526,125.487,317.526,123.987," stroke="#000000" />
			<path fill="none" d=" M136.842,124.737 L320.526,124.737" stroke="#000000" />
		</g>
		<g>
			<polygon points="234.737,341.579,233.987,344.579,235.487,344.579," stroke="#000000" />
			<path fill="none" d=" M75.2632,283.158 L75.2632,361.579 M75.2632,361.579 L234.737,361.579 M234.737,361.579 L234.737,344.579" stroke="#000000" />
		</g>
		<g>
			<polygon points="322.632,120,321.882,117,323.382,117," stroke="#000000" />
			<path fill="none" d=" M322.632,100 L322.632,117" stroke="#000000" />
		</g>
		<g>
			<polygon points="411.053,144.737,410.303,141.737,411.803,141.737," stroke="#000000" />
			<path fill="none" d=" M324.737,94.7368 L411.053,94.7368 M411.053,94.7368 L411.053,141.737" stroke="#000000" />
		</g>
		<g>
			<polygon points="237.895,331.579,237.145,328.579,238.645,328.579," stroke="#000000" />
			<path fill="none" d=" M258.947,291.579 L258.947,311.579 M258.947,311.579 L237.895,311.579 M237.895,311.579 L237.895,328.579" stroke="#000000" />
		</g>
		<g>
			<polygon points="386.316,180,389.316,179.25,389.316,180.75," stroke="#000000" />
			<path fill="none" d=" M406.316,180 L386.316,180" stroke="#000000" />
		</g>
		<g>
			<polygon points="411.053,154.737,410.303,157.737,411.803,157.737," stroke="#000000" />
			<path fill="none" d=" M411.053,174.737 L411.053,157.737" stroke="#000000" />
		</g>
		<g>
			<polygon points="416.316,150,419.316,149.25,419.316,150.75," stroke="#000000" />
			<path fill="none" d=" M240,336.316 L436.316,336.316 M436.316,336.316 L436.316,150 M436.316,150 L416.316,150" stroke="#000000" />
		</g>
	</g>
	<g>
		<rect x="224.21052631578951" y="207.36842105263162" width="10" height="10" />
	</g>
	<g>
		<rect x="20" y="303.15789473684214" width="10" height="10" />
	</g>
	<g>
		<rect x="20" y="273.15789473684214" width="10" height="10" />
	</g>
	<g>
		<rect x="254.21052631578954" y="231.5789473684211" width="10" height="10" />
	</g>
	<g>
		<rect x="276.31578947368428" y="171.5789473684211" width="10" height="10" />
	</g>
	<g>
		<rect x="127.89473684210529" y="40" width="10" height="10" />
	</g>
	<g>
		<rect x="142.10526315789474" y="274.73684210526324" width="10" height="10" />
	</g>
	<g>
		<rect x="120.00000000000001" y="224.73684210526321" width="10" height="10" />
	</g>
	<g>
		<rect x="142.10526315789474" y="325.78947368421058" width="10" height="10" />
	</g>
	<g>
		<rect x="326.31578947368428" y="196.31578947368425" width="10" height="10" />
	</g>
	<g>
		<rect x="126.84210526315792" y="122.63157894736844" width="10" height="10" />
	</g>
	<g>
		<rect x="70" y="273.15789473684214" width="10" height="10" />
	</g>
	<g>
		<rect x="314.73684210526324" y="90.000000000000014" width="10" height="10" />
	</g>
	<g>
		<rect x="256.84210526315792" y="281.5789473684211" width="10" height="10" />
	</g>
	<g>
		<rect x="406.31578947368428" y="174.73684210526318" width="10" height="10" />
	</g>
	<g>
		<rect x="254.21052631578954" y="201.5789473684211" width="10" height="10" />
	</g>
	<g>
		<rect x="230.00000000000003" y="331.5789473684211" width="10" height="10" />
	</g>
	<g>
		<rect x="320.52631578947376" y="120.00000000000003" width="10" height="10" />
	</g>
	<g>
		<rect x="376.31578947368428" y="174.73684210526318" width="10" height="10" />
	</g>
	<g>
		<rect x="406.31578947368428" y="144.73684210526318" width="10" height="10" />
	</g>
</svg>
