<?xml version="1.0"?>
<svg xmlns="http://www.w3.org/2000/svg" xmlns:xlink="http://www.w3.org/1999/xlink" xmlns:ev="http://www.w3.org/2001/xml-events" version="1.1" baseProfile="full" viewBox="19 19 318.429 308.429">
	<g>
		<g>
			<polygon points="125,132.857,128,132.107,128,133.607," stroke="#000000" />
			<path fill="none" d=" M165,132.857 L125,132.857" stroke="#000000" />
		</g>
		<g>
			<polygon points="196.429,201.429,195.679,198.429,197.179,198.429," stroke="#000000" />
			<path fill="none" d=" M175,137.143 L196.429,137.143 M196.429,137.143 L196.429,198.429" stroke="#000000" />
		</g>
		<g>
			<polygon points="170,90,169.25,93,170.75,93," stroke="#000000" />
			<path fill="none" d=" M170,130 L170,93" stroke="#000000" />
		</g>
		<g>
			<polygon points="204.286,201.429,203.536,198.429,205.036,198.429," stroke="#000000" />
			<path fill="none" d=" M239.286,161.429 L239.286,181.429 M239.286,181.429 L204.286,181.429 M204.286,181.429 L204.286,198.429" stroke="#000000" />
		</g>
		<g>
			<polygon points="222.857,112.143,222.107,115.143,223.607,115.143," stroke="#000000" />
			<path fill="none" d=" M239.286,151.429 L239.286,131.429 M239.286,131.429 L222.857,131.429 M222.857,131.429 L222.857,115.143" stroke="#000000" />
		</g>
		<g>
			<polygon points="195.714,204.286,192.714,205.036,192.714,203.536," stroke="#000000" />
			<path fill="none" d=" M120,135 L125,137.857 M125,137.857 L145,137.857 M145,137.857 L145,204.286 M145,204.286 L195.714,204.286" stroke="#000000" />
		</g>
		<g>
			<polygon points="55,132.143,58,131.393,58,132.893," stroke="#000000" />
			<path fill="none" d=" M115,132.143 L55,132.143" stroke="#000000" />
		</g>
		<g>
			<polygon points="215,110,212,110.75,212,109.25," stroke="#000000" />
			<path fill="none" d=" M120,130 L120,110 M120,110 L215,110" stroke="#000000" />
		</g>
		<g>
			<polygon points="311.429,205,310.679,208,312.179,208," stroke="#000000" />
			<path fill="none" d=" M120,140 L120,231.429 M120,231.429 L311.429,231.429 M311.429,231.429 L311.429,208" stroke="#000000" />
		</g>
		<g>
			<polygon points="50,133.571,49.25,136.571,50.75,136.571," stroke="#000000" />
			<path fill="none" d=" M200.714,211.429 L200.714,251.429 M200.714,251.429 L50,251.429 M50,251.429 L50,136.571" stroke="#000000" />
		</g>
		<g>
			<polygon points="216.429,112.143,215.679,115.143,217.179,115.143," stroke="#000000" />
			<path fill="none" d=" M200.714,201.429 L200.714,161.429 M200.714,161.429 L216.429,161.429 M216.429,161.429 L216.429,115.143" stroke="#000000" />
		</g>
		<g>
			<polygon points="306.429,204.286,303.429,205.036,303.429,203.536," stroke="#000000" />
			<path fill="none" d=" M205.714,204.286 L306.429,204.286" stroke="#000000" />
		</g>
		<g>
			<polygon points="220,102.143,219.25,99.1429,220.75,99.1429," stroke="#000000" />
			<path fill="none" d=" M55,125 L75,125 M75,125 L75,60 M75,60 L220,60 M220,60 L220,99.1429" stroke="#000000" />
		</g>
		<g>
			<polygon points="311.429,195,310.679,192,312.179,192," stroke="#000000" />
			<path fill="none" d=" M50,128.571 L50,123.571 M50,123.571 L50,20 M50,20 L311.429,20 M311.429,20 L311.429,192" stroke="#000000" />
		</g>
		<g>
			<polygon points="165,87.8571,162,88.6071,162,87.1071," stroke="#000000" />
			<path fill="none" d=" M55,128.571 L95,128.571 M95,128.571 L95,87.8571 M95,87.8571 L165,87.8571" stroke="#000000" />
		</g>
		<g>
			<polygon points="25,266.429,24.25,263.429,25.75,263.429," stroke="#000000" />
			<path fill="none" d=" M45,128.571 L25,128.571 M25,128.571 L25,263.429" stroke="#000000" />
		</g>
		<g>
			<polygon points="306.429,200,303.429,200.75,303.429,199.25," stroke="#000000" />
			<path fill="none" d=" M225,109.286 L266.429,109.286 M266.429,109.286 L266.429,200 M266.429,200 L306.429,200" stroke="#000000" />
		</g>
		<g>
			<polygon points="175,87.8571,178,87.1071,178,88.6071," stroke="#000000" />
			<path fill="none" d=" M220,107.143 L215,103.571 M215,103.571 L195,103.571 M195,103.571 L195,87.8571 M195,87.8571 L175,87.8571" stroke="#000000" />
		</g>
		<g>
			<polygon points="170,80,169.25,77,170.75,77," stroke="#000000" />
			<path fill="none" d=" M306.429,196.429 L286.429,196.429 M286.429,196.429 L286.429,40 M286.429,40 L170,40 M170,40 L170,77" stroke="#000000" />
		</g>
		<g>
			<polygon points="30,271.429,33,270.679,33,272.179," stroke="#000000" />
			<path fill="none" d=" M311.429,200 L316.429,200 M316.429,200 L336.429,200 M336.429,200 L336.429,271.429 M336.429,271.429 L30,271.429" stroke="#000000" />
		</g>
	</g>
	<g>
		<rect x="165.00000000000003" y="130.00000000000003" width="10" height="10" />
	</g>
	<g>
		<rect x="236.42857142857147" y="151.42857142857147" width="10" height="10" />
	</g>
	<g>
		<rect x="115.00000000000001" y="130.00000000000003" width="10" height="10" />
	</g>
	<g>
		<rect x="195.71428571428575" y="201.42857142857147" width="10" height="10" />
	</g>
	<g>
		<rect x="45" y="123.57142857142861" width="10" height="10" />
	</g>
	<g>
		<rect x="215.00000000000006" y="102.14285714285717" width="10" height="10" />
	</g>
	<g>
		<rect x="306.42857142857144" y="195.00000000000006" width="10" height="10" />
	</g>
	<g>
		<rect x="20" y="316.4285714285715" width="10" height="10" />
	</g>
	<g>
		<rect x="165.00000000000003" y="80.000000000000014" width="10" height="10" />
	</g>
	<g>
		<rect x="20" y="266.42857142857144" width="10" height="10" />
	</g>
</svg>
