<?xml version="1.0"?>
<svg xmlns="http://www.w3.org/2000/svg" xmlns:xlink="http://www.w3.org/1999/xlink" xmlns:ev="http://www.w3.org/2001/xml-events" version="1.1" baseProfile="full" viewBox="19 19 232 225.333">
	<g>
		<g>
			<polygon points="155.556,68.8889,154.806,65.8889,156.306,65.8889," stroke="#000000" />
			<path fill="none" d=" M180,44.4444 L155.556,44.4444 M155.556,44.4444 L155.556,65.8889" stroke="#000000" />
		</g>
		<g>
			<polygon points="184.444,68.8889,183.694,65.8889,185.194,65.8889," stroke="#000000" />
			<path fill="none" d=" M184.444,48.8889 L184.444,65.8889" stroke="#000000" />
		</g>
		<g>
			<polygon points="160,106.667,163,105.917,163,107.417," stroke="#000000" />
			<path fill="none" d=" M210,106.667 L160,106.667" stroke="#000000" />
		</g>
		<g>
			<polygon points="214.444,78.8889,213.694,81.8889,215.194,81.8889," stroke="#000000" />
			<path fill="none" d=" M214.444,101.111 L214.444,81.8889" stroke="#000000" />
		</g>
		<g>
			<polygon points="150,74.4444,147,75.1944,147,73.6944," stroke="#000000" />
			<path fill="none" d=" M70,74.4444 L150,74.4444" stroke="#000000" />
		</g>
		<g>
			<polygon points="75.5556,204.444,72.5556,205.194,72.5556,203.694," stroke="#000000" />
			<path fill="none" d=" M60,74.4444 L20,74.4444 M20,74.4444 L20,204.444 M20,204.444 L75.5556,204.444" stroke="#000000" />
		</g>
		<g>
			<polygon points="64.4444,98.8889,63.6944,95.8889,65.1944,95.8889," stroke="#000000" />
			<path fill="none" d=" M64.4444,78.8889 L64.4444,95.8889" stroke="#000000" />
		</g>
		<g>
			<polygon points="155.556,78.8889,154.806,81.8889,156.306,81.8889," stroke="#000000" />
			<path fill="none" d=" M155.556,101.111 L155.556,81.8889" stroke="#000000" />
		</g>
		<g>
			<polygon points="85.5556,207.778,88.5556,207.028,88.5556,208.528," stroke="#000000" />
			<path fill="none" d=" M155.556,111.111 L155.556,223.333 M155.556,223.333 L105.556,223.333 M105.556,223.333 L105.556,207.778 M105.556,207.778 L85.5556,207.778" stroke="#000000" />
		</g>
		<g>
			<polygon points="70,104.444,73,103.694,73,105.194," stroke="#000000" />
			<path fill="none" d=" M150,104.444 L70,104.444" stroke="#000000" />
		</g>
		<g>
			<polygon points="130,193.333,129.25,190.333,130.75,190.333," stroke="#000000" />
			<path fill="none" d=" M150,110 L130,110 M130,110 L130,190.333" stroke="#000000" />
		</g>
		<g>
			<polygon points="180,74.4444,177,75.1944,177,73.6944," stroke="#000000" />
			<path fill="none" d=" M160,74.4444 L180,74.4444" stroke="#000000" />
		</g>
		<g>
			<polygon points="61.1111,108.889,60.3611,111.889,61.8611,111.889," stroke="#000000" />
			<path fill="none" d=" M76.6667,198.889 L76.6667,178.889 M76.6667,178.889 L61.1111,178.889 M61.1111,178.889 L61.1111,111.889" stroke="#000000" />
		</g>
		<g>
			<polygon points="125.556,201.111,122.556,201.861,122.556,200.361," stroke="#000000" />
			<path fill="none" d=" M85.5556,201.111 L125.556,201.111" stroke="#000000" />
		</g>
		<g>
			<polygon points="83.3333,158.889,82.5833,161.889,84.0833,161.889," stroke="#000000" />
			<path fill="none" d=" M83.3333,198.889 L83.3333,161.889" stroke="#000000" />
		</g>
		<g>
			<polygon points="244.444,78.8889,243.694,81.8889,245.194,81.8889," stroke="#000000" />
			<path fill="none" d=" M80,208.889 L80,243.333 M80,243.333 L244.444,243.333 M244.444,243.333 L244.444,81.8889" stroke="#000000" />
		</g>
		<g>
			<polygon points="214.444,68.8889,213.694,65.8889,215.194,65.8889," stroke="#000000" />
			<path fill="none" d=" M60,104.444 L40,104.444 M40,104.444 L40,20 M40,20 L214.444,20 M214.444,20 L214.444,65.8889" stroke="#000000" />
		</g>
		<g>
			<polygon points="83.3333,148.889,82.5833,145.889,84.0833,145.889," stroke="#000000" />
			<path fill="none" d=" M67.7778,108.889 L67.7778,128.889 M67.7778,128.889 L83.3333,128.889 M83.3333,128.889 L83.3333,145.889" stroke="#000000" />
		</g>
		<g>
			<polygon points="190,74.4444,193,73.6944,193,75.1944," stroke="#000000" />
			<path fill="none" d=" M210,74.4444 L190,74.4444" stroke="#000000" />
		</g>
		<g>
			<polygon points="240,74.4444,237,75.1944,237,73.6944," stroke="#000000" />
			<path fill="none" d=" M220,74.4444 L240,74.4444" stroke="#000000" />
		</g>
	</g>
	<g>
		<rect x="180.00000000000003" y="39.444444444444443" width="10" height="10" />
	</g>
	<g>
		<rect x="210.00000000000003" y="101.11111111111111" width="10" height="10" />
	</g>
	<g>
		<rect x="60.000000000000014" y="68.888888888888886" width="10" height="10" />
	</g>
	<g>
		<rect x="150.00000000000003" y="101.11111111111111" width="10" height="10" />
	</g>
	<g>
		<rect x="150.00000000000003" y="68.888888888888886" width="10" height="10" />
	</g>
	<g>
		<rect x="75.555555555555571" y="198.88888888888891" width="10" height="10" />
	</g>
	<g>
		<rect x="60.000000000000014" y="98.8888888888889" width="10" height="10" />
	</g>
	<g>
		<rect x="210.00000000000003" y="68.888888888888886" width="10" height="10" />
	</g>
	<g>
		<rect x="125.55555555555557" y="193.33333333333337" width="10" height="10" />
	</g>
	<g>
		<rect x="180.00000000000003" y="68.888888888888886" width="10" height="10" />
	</g>
	<g>
		<rect x="81.111111111111128" y="148.88888888888891" width="10" height="10" />
	</g>
	<g>
		<rect x="240.00000000000003" y="68.888888888888886" width="10" height="10" />
	</g>
</svg>
