<?xml version="1.0"?>
<svg xmlns="http://www.w3.org/2000/svg" xmlns:xlink="http://www.w3.org/1999/xlink" xmlns:ev="http://www.w3.org/2001/xml-events" version="1.1" baseProfile="full" viewBox="19 19 318.25 308.25">
	<g>
		<g>
			<polygon points="125,132.083,128,131.333,128,132.833," stroke="#000000" />
			<path fill="none" d=" M165,132.083 L125,132.083" stroke="#000000" />
		</g>
		<g>
			<polygon points="196.25,201.25,195.5,198.25,197,198.25," stroke="#000000" />
			<path fill="none" d=" M175,138.75 L196.25,138.75 M196.25,138.75 L196.25,198.25" stroke="#000000" />
		</g>
		<g>
			<polygon points="170,90,169.25,93,170.75,93," stroke="#000000" />
			<path fill="none" d=" M170,130 L170,93" stroke="#000000" />
		</g>
		<g>
			<polygon points="205,201.25,204.25,198.25,205.75,198.25," stroke="#000000" />
			<path fill="none" d=" M237.5,161.25 L237.5,181.25 M237.5,181.25 L205,181.25 M205,181.25 L205,198.25" stroke="#000000" />
		</g>
		<g>
			<polygon points="223.75,111.25,223,114.25,224.5,114.25," stroke="#000000" />
			<path fill="none" d=" M237.5,151.25 L237.5,131.25 M237.5,131.25 L223.75,131.25 M223.75,131.25 L223.75,114.25" stroke="#000000" />
		</g>
		<g>
			<polygon points="195.417,202.5,192.417,203.25,192.417,201.75," stroke="#000000" />
			<path fill="none" d=" M120,135 L125,138.75 M125,138.75 L145,138.75 M145,138.75 L145,202.5 M145,202.5 L195.417,202.5" stroke="#000000" />
		</g>
		<g>
			<polygon points="55,131.25,58,130.5,58,132," stroke="#000000" />
			<path fill="none" d=" M115,131.25 L55,131.25" stroke="#000000" />
		</g>
		<g>
			<polygon points="215,110,212,110.75,212,109.25," stroke="#000000" />
			<path fill="none" d=" M120,130 L120,110 M120,110 L215,110" stroke="#000000" />
		</g>
		<g>
			<polygon points="311.25,202.917,310.5,205.917,312,205.917," stroke="#000000" />
			<path fill="none" d=" M120,140 L120,231.25 M120,231.25 L311.25,231.25 M311.25,231.25 L311.25,205.917" stroke="#000000" />
		</g>
		<g>
			<polygon points="50,131.875,49.25,134.875,50.75,134.875," stroke="#000000" />
			<path fill="none" d=" M200.417,211.25 L200.417,251.25 M200.417,251.25 L50,251.25 M50,251.25 L50,134.875" stroke="#000000" />
		</g>
		<g>
			<polygon points="216.25,111.25,215.5,114.25,217,114.25," stroke="#000000" />
			<path fill="none" d=" M200.833,201.25 L200.833,161.25 M200.833,161.25 L216.25,161.25 M216.25,161.25 L216.25,114.25" stroke="#000000" />
		</g>
		<g>
			<polygon points="306.25,202.5,303.25,203.25,303.25,201.75," stroke="#000000" />
			<path fill="none" d=" M205.417,202.5 L306.25,202.5" stroke="#000000" />
		</g>
		<g>
			<polygon points="220,101.25,219.25,98.25,220.75,98.25," stroke="#000000" />
			<path fill="none" d=" M55,122.5 L75,122.5 M75,122.5 L75,60 M75,60 L220,60 M220,60 L220,98.25" stroke="#000000" />
		</g>
		<g>
			<polygon points="311.25,192.917,310.5,189.917,312,189.917," stroke="#000000" />
			<path fill="none" d=" M50,122.083 L50,20 M50,20 L311.25,20 M311.25,20 L311.25,189.917" stroke="#000000" />
		</g>
		<g>
			<polygon points="165,88.75,162,89.5,162,88," stroke="#000000" />
			<path fill="none" d=" M55,126.667 L95,126.667 M95,126.667 L95,88.75 M95,88.75 L165,88.75" stroke="#000000" />
		</g>
		<g>
			<polygon points="25,266.25,24.25,263.25,25.75,263.25," stroke="#000000" />
			<path fill="none" d=" M45,127.083 L25,127.083 M25,127.083 L25,263.25" stroke="#000000" />
		</g>
		<g>
			<polygon points="306.25,197.917,303.25,198.667,303.25,197.167," stroke="#000000" />
			<path fill="none" d=" M225,110 L266.25,110 M266.25,110 L266.25,197.917 M266.25,197.917 L306.25,197.917" stroke="#000000" />
		</g>
		<g>
			<polygon points="175,88.75,178,88,178,89.5," stroke="#000000" />
			<path fill="none" d=" M220,106.25 L215,102.5 M215,102.5 L195,102.5 M195,102.5 L195,88.75 M195,88.75 L175,88.75" stroke="#000000" />
		</g>
		<g>
			<polygon points="170,80,169.25,77,170.75,77," stroke="#000000" />
			<path fill="none" d=" M306.25,193.75 L286.25,193.75 M286.25,193.75 L286.25,40 M286.25,40 L170,40 M170,40 L170,77" stroke="#000000" />
		</g>
		<g>
			<polygon points="30,271.25,33,270.5,33,272," stroke="#000000" />
			<path fill="none" d=" M316.25,197.917 L336.25,197.917 M336.25,197.917 L336.25,271.25 M336.25,271.25 L30,271.25" stroke="#000000" />
		</g>
	</g>
	<g>
		<rect x="165.00000000000003" y="130.00000000000003" width="10" height="10" />
	</g>
	<g>
		<rect x="236.25000000000006" y="151.25000000000003" width="10" height="10" />
	</g>
	<g>
		<rect x="115.00000000000001" y="130.00000000000003" width="10" height="10" />
	</g>
	<g>
		<rect x="195.41666666666669" y="201.25000000000006" width="10" height="10" />
	</g>
	<g>
		<rect x="45" y="121.87500000000003" width="10" height="10" />
	</g>
	<g>
		<rect x="215.00000000000006" y="101.25000000000003" width="10" height="10" />
	</g>
	<g>
		<rect x="306.25000000000006" y="192.91666666666671" width="10" height="10" />
	</g>
	<g>
		<rect x="20" y="316.25000000000006" width="10" height="10" />
	</g>
	<g>
		<rect x="165.00000000000003" y="80.000000000000014" width="10" height="10" />
	</g>
	<g>
		<rect x="20" y="266.25000000000006" width="10" height="10" />
	</g>
</svg>
