<?xml version="1.0"?>
<svg xmlns="http://www.w3.org/2000/svg" xmlns:xlink="http://www.w3.org/1999/xlink" xmlns:ev="http://www.w3.org/2001/xml-events" version="1.1" baseProfile="full" viewBox="19 19 184.5 199.5">
	<g>
		<g>
			<polygon points="75,120.833,78,120.083,78,121.583," stroke="#000000" />
			<path fill="none" d=" M95,105.833 L85,105.833 M85,105.833 L85,120.833 M85,120.833 L75,120.833" stroke="#000000" />
		</g>
		<g>
			<polygon points="129.167,122.5,128.417,119.5,129.917,119.5," stroke="#000000" />
			<path fill="none" d=" M105,102.5 L129.167,102.5 M129.167,102.5 L129.167,119.5" stroke="#000000" />
		</g>
		<g>
			<polygon points="100,60,99.25,63,100.75,63," stroke="#000000" />
			<path fill="none" d=" M100,99.1667 L100,63" stroke="#000000" />
		</g>
		<g>
			<polygon points="135.833,122.5,135.083,119.5,136.583,119.5," stroke="#000000" />
			<path fill="none" d=" M145.833,102.5 L145.833,112.5 M145.833,112.5 L135.833,112.5 M135.833,112.5 L135.833,119.5" stroke="#000000" />
		</g>
		<g>
			<polygon points="137.5,72.5,136.75,75.5,138.25,75.5," stroke="#000000" />
			<path fill="none" d=" M145.833,92.5 L145.833,82.5 M145.833,82.5 L137.5,82.5 M137.5,82.5 L137.5,75.5" stroke="#000000" />
		</g>
		<g>
			<polygon points="127.5,125.833,124.5,126.583,124.5,125.083," stroke="#000000" />
			<path fill="none" d=" M75,125.833 L127.5,125.833" stroke="#000000" />
		</g>
		<g>
			<polygon points="45,58.3333,48,57.5833,48,59.0833," stroke="#000000" />
			<path fill="none" d=" M65,121.667 L55,121.667 M55,121.667 L55,58.3333 M55,58.3333 L45,58.3333" stroke="#000000" />
		</g>
		<g>
			<polygon points="130,70,127,70.75,127,69.25," stroke="#000000" />
			<path fill="none" d=" M70,118.333 L70,70 M70,70 L130,70" stroke="#000000" />
		</g>
		<g>
			<polygon points="187.5,127.5,186.75,130.5,188.25,130.5," stroke="#000000" />
			<path fill="none" d=" M70,128.333 L70,142.5 M70,142.5 L187.5,142.5 M187.5,142.5 L187.5,130.5" stroke="#000000" />
		</g>
		<g>
			<polygon points="40,60,39.25,63,40.75,63," stroke="#000000" />
			<path fill="none" d=" M132.5,132.5 L132.5,152.5 M132.5,152.5 L40,152.5 M40,152.5 L40,63" stroke="#000000" />
		</g>
		<g>
			<polygon points="132.5,72.5,131.75,75.5,133.25,75.5," stroke="#000000" />
			<path fill="none" d=" M132.5,122.5 L132.5,75.5" stroke="#000000" />
		</g>
		<g>
			<polygon points="182.5,125.833,179.5,126.583,179.5,125.083," stroke="#000000" />
			<path fill="none" d=" M137.5,125.833 L182.5,125.833" stroke="#000000" />
		</g>
		<g>
			<polygon points="135,62.5,134.25,59.5,135.75,59.5," stroke="#000000" />
			<path fill="none" d=" M45,51.6667 L75,51.6667 M75,51.6667 L75,40 M75,40 L135,40 M135,40 L135,59.5" stroke="#000000" />
		</g>
		<g>
			<polygon points="187.5,117.5,186.75,114.5,188.25,114.5," stroke="#000000" />
			<path fill="none" d=" M40,50 L40,20 M40,20 L187.5,20 M187.5,20 L187.5,114.5" stroke="#000000" />
		</g>
		<g>
			<polygon points="95,55,92,55.75,92,54.25," stroke="#000000" />
			<path fill="none" d=" M45,55 L95,55" stroke="#000000" />
		</g>
		<g>
			<polygon points="25,157.5,24.25,154.5,25.75,154.5," stroke="#000000" />
			<path fill="none" d=" M35,55 L25,55 M25,55 L25,154.5" stroke="#000000" />
		</g>
		<g>
			<polygon points="182.5,122.5,179.5,123.25,179.5,121.75," stroke="#000000" />
			<path fill="none" d=" M140,69.1667 L162.5,69.1667 M162.5,69.1667 L162.5,122.5 M162.5,122.5 L182.5,122.5" stroke="#000000" />
		</g>
		<g>
			<polygon points="105,56.6667,108,55.9167,108,57.4167," stroke="#000000" />
			<path fill="none" d=" M130,65 L120,65 M120,65 L120,56.6667 M120,56.6667 L105,56.6667" stroke="#000000" />
		</g>
		<g>
			<polygon points="100,50,99.25,47,100.75,47," stroke="#000000" />
			<path fill="none" d=" M182.5,119.167 L172.5,119.167 M172.5,119.167 L172.5,30 M172.5,30 L100,30 M100,30 L100,47" stroke="#000000" />
		</g>
		<g>
			<polygon points="30,162.5,33,161.75,33,163.25," stroke="#000000" />
			<path fill="none" d=" M192.5,122.5 L202.5,122.5 M202.5,122.5 L202.5,162.5 M202.5,162.5 L30,162.5" stroke="#000000" />
		</g>
	</g>
	<g>
		<rect x="95" y="99.166666666666671" width="10" height="10" />
	</g>
	<g>
		<rect x="142.5" y="92.5" width="10" height="10" />
	</g>
	<g>
		<rect x="65" y="118.33333333333334" width="10" height="10" />
	</g>
	<g>
		<rect x="127.5" y="122.5" width="10" height="10" />
	</g>
	<g>
		<rect x="35" y="50" width="10" height="10" />
	</g>
	<g>
		<rect x="130" y="62.5" width="10" height="10" />
	</g>
	<g>
		<rect x="182.5" y="117.5" width="10" height="10" />
	</g>
	<g>
		<rect x="20" y="207.5" width="10" height="10" />
	</g>
	<g>
		<rect x="95" y="50" width="10" height="10" />
	</g>
	<g>
		<rect x="20" y="157.5" width="10" height="10" />
	</g>
</svg>
